<svg xmlns="http://www.w3.org/2000/svg" version="1.1" xmlns:xlink="http://www.w3.org/1999/xlink" xmlns:svgjs="http://svgjs.dev/svgjs" viewBox="0 0 800 800" opacity="0.83"><g stroke-width="3.5" stroke-opacity='0.2' stroke="rgb(153, 153, 153)" fill="none"><rect width="560" height="560" x="120" y="120" transform="rotate(28, 400, 400)" opacity="0.05"></rect><rect width="520" height="520" x="140" y="140" transform="rotate(26, 400, 400)" opacity="0.12"></rect><rect width="480" height="480" x="160" y="160" transform="rotate(24, 400, 400)" opacity="0.20"></rect><rect width="440" height="440" x="180" y="180" transform="rotate(22, 400, 400)" opacity="0.27"></rect><rect width="400" height="400" x="200" y="200" transform="rotate(20, 400, 400)" opacity="0.34"></rect><rect width="360" height="360" x="220" y="220" transform="rotate(18, 400, 400)" opacity="0.42"></rect><rect width="320" height="320" x="240" y="240" transform="rotate(16, 400, 400)" opacity="0.49"></rect><rect width="280" height="280" x="260" y="260" transform="rotate(14, 400, 400)" opacity="0.56"></rect><rect width="240" height="240" x="280" y="280" transform="rotate(12, 400, 400)" opacity="0.63"></rect><rect width="200" height="200" x="300" y="300" transform="rotate(10, 400, 400)" opacity="0.71"></rect><rect width="160" height="160" x="320" y="320" transform="rotate(8, 400, 400)" opacity="0.78"></rect><rect width="120" height="120" x="340" y="340" transform="rotate(6, 400, 400)" opacity="0.85"></rect><rect width="80" height="80" x="360" y="360" transform="rotate(4, 400, 400)" opacity="0.93"></rect><rect width="40" height="40" x="380" y="380" transform="rotate(2, 400, 400)" opacity="1.00"></rect></g></svg>