<svg xmlns="http://www.w3.org/2000/svg" version="1.1" xmlns:xlink="http://www.w3.org/1999/xlink" xmlns:svgjs="http://svgjs.dev/svgjs" viewBox="0 0 800 800" opacity="0.83"><g stroke-width="3.5" stroke-opacity='0.2' stroke="rgb(153, 153, 153)" fill="none"><path d="M375.3664533800155 44.71731284978955C390.6097109127393 35.91819909625215 409.390350122417 35.91819909625215 424.63360765514074 44.71977620750329L695.366473827809 201.02721321847935C710.6097313605328 209.82632697201672 720.0000509653717 226.09187795594937 720.0000509653717 243.69256882073796V556.30744284269C720.0000509653717 573.9081337074786 710.6097313605328 590.1736846914113 695.366473827809 598.9752618026622L424.63360765514074 755.2826988136383C409.390350122417 764.0818125671757 390.6097109127393 764.0818125671757 375.3664533800155 755.2802354559246L104.63358720734726 598.9727984449486C89.3903296746235 590.1736846914113 80.0000100697846 573.9081337074786 80.0000100697846 556.30744284269V243.69256882073796C80.0000100697846 226.09187795594937 89.3903296746235 209.82632697201672 104.63358720734726 201.0247498607656L375.3664533800155 44.71731284978955Z " transform="rotate(8, 400, 400)" opacity="0.05"></path><path d="M376.9060519511131 66.92245886216841C391.19660588804163 58.673289718227124 408.8034551471146 58.673289718227124 423.09400908404314 66.92476826002508L676.9060711209196 213.46299045781512C691.196625057848 221.7121596017564 700.0000496873845 236.96111364919324 700.0000496873845 253.46176133493253V546.5382057305126C700.0000496873845 563.038853416252 691.196625057848 578.2878074636888 676.9060711209196 586.5392860054867L423.09400908404314 733.0775082032768C408.8034551471146 741.3266773472179 391.19660588804163 741.3266773472179 376.9060519511131 733.0751988054202L123.09398991423666 586.5369766076301C108.8034359773082 578.2878074636888 100.0000113477717 563.038853416252 100.0000113477717 546.5382057305126V253.46176133493253C100.0000113477717 236.96111364919324 108.8034359773082 221.7121596017564 123.09398991423666 213.46068105995857L376.9060519511131 66.92245886216841Z " transform="rotate(7.5, 400, 400)" opacity="0.11"></path><path d="M378.4456505222108 89.1276353921254C391.7835008633441 81.4284108577802 408.21656017181215 81.4284108577802 421.5544105129454 89.12979083012493L658.4456684140301 225.89879821472903C671.7835187551634 233.59802274907418 680.0000484093974 247.83037986001523 680.0000484093974 263.23098436670523V536.7689991359134C680.0000484093974 552.1696036426033 671.7835187551634 566.4019607535444 658.4456684140301 574.1033407258891L421.5544105129454 710.8723481104931C408.21656017181215 718.5715726448384 391.7835008633441 718.5715726448384 378.4456505222108 710.8701926724937L141.5543926211261 574.1011852878896C128.21654227999284 566.4019607535444 120.00001262575881 552.1696036426033 120.00001262575881 536.7689991359134V263.23098436670523C120.00001262575881 247.83037986001523 128.21654227999284 233.59802274907418 141.5543926211261 225.8966427767295L378.4456505222108 89.1276353921254Z " transform="rotate(7, 400, 400)" opacity="0.18"></path><path d="M379.9852490933085 111.33281192208239C392.3703958386466 104.18353199733329 407.6296651965097 104.18353199733329 420.0148119418477 111.33481340022485L639.9852657071408 238.33460597164287C652.3704124524787 245.483885896392 660.0000471314103 258.6996460708373 660.0000471314103 273.000207398478V526.999792541314C660.0000471314103 541.3003538689547 652.3704124524787 554.5161140434001 639.9852657071408 561.6673954462915L420.0148119418477 688.6671880177096C407.6296651965097 695.8164679424586 392.3703958386466 695.8164679424586 379.9852490933085 688.6651865395671L160.0147953280155 561.6653939681491C147.62964858267748 554.5161140434001 140.00001390374592 541.3003538689547 140.00001390374592 526.999792541314V273.000207398478C140.00001390374592 258.6996460708373 147.62964858267748 245.483885896392 160.0147953280155 238.33260449350053L379.9852490933085 111.33281192208239Z " transform="rotate(6.5, 400, 400)" opacity="0.24"></path><path d="M381.5248324056171 133.53798845203943C392.95727555515987 126.93865313688639 407.04275496241826 126.93865313688639 418.47519811196105 133.53983597032476L621.5248477414623 250.77041372855678C632.957290891005 257.3697490437098 640.0000305946342 269.56891228165927 640.0000305946342 282.76943043025074V517.2305859467148C640.0000305946342 530.4311040953062 632.957290891005 542.6302673332557 621.5248477414623 549.231450166694L418.47519811196105 666.462027924926C407.04275496241826 673.061363240079 392.95727555515987 673.061363240079 381.5248324056171 666.4601804066408L178.4751827761159 549.2296026484087C167.0427396265731 542.6302673332557 159.9999999229439 530.4311040953062 159.9999999229439 517.2305859467148V282.76943043025074C159.9999999229439 269.56891228165927 167.0427396265731 257.3697490437098 178.4751827761159 250.7685662102715L381.5248324056171 133.53798845203943Z " transform="rotate(6, 400, 400)" opacity="0.30"></path><path d="M383.0644157179257 155.74316498199642C393.5441552716733 149.69377427643946 406.4558447283267 149.69377427643946 416.9355842820743 155.74485854042462L603.0644297757838 263.2062214854707C613.5441693295313 269.2556121910276 620.000014057858 280.43817849248126 620.000014057858 292.53865346202343V507.4613793521155C620.000014057858 519.5618543216576 613.5441693295313 530.7444206231113 603.0644297757838 536.7955048870965L416.9355842820743 644.2568678321425C406.4558447283267 650.3062585376995 393.5441552716733 650.3062585376995 383.0644157179257 644.2551742737144L196.93557022421624 536.7938113286682C186.45583067046869 530.7444206231113 179.99998594214196 519.5618543216576 179.99998594214196 507.4613793521155V292.53865346202343C179.99998594214196 280.43817849248126 186.45583067046869 269.2556121910276 196.93557022421624 263.2045279270425L383.0644157179257 155.74316498199642Z " transform="rotate(5.5, 400, 400)" opacity="0.37"></path><path d="M384.6040142890233 177.94831099437528C394.1310502469757 172.44886489841443 405.8689497530243 172.44886489841443 415.3959857109767 177.9498505929464L584.6040270688943 275.6419987248064C594.1310630268466 281.1414448207673 600.000012779871 291.3074141857252 600.000012779871 302.30784597621806V497.6921422399381C600.000012779871 508.69257403043093 594.1310630268466 518.8585433953889 584.6040270688943 524.3595290899208L415.3959857109767 622.0516772217808C405.8689497530243 627.5511233177417 394.1310502469757 627.5511233177417 384.6040142890233 622.0501376232097L215.3959729311057 524.3579894913497C205.86893697315338 518.8585433953889 199.99998722012907 508.69257403043093 199.99998722012907 497.6921422399381V302.30784597621806C199.99998722012907 291.3074141857252 205.86893697315338 281.1414448207673 215.3959729311057 275.6404591262354L384.6040142890233 177.94831099437528Z " transform="rotate(5, 400, 400)" opacity="0.43"></path><path d="M386.14361286012104 200.15348752433232C394.7179452222781 195.20398603796752 405.2820547777219 195.20398603796752 413.85638713987896 200.15487316304626L566.1436243620049 288.0778064817203C574.7179567241619 293.0273079680851 580.0000115018838 302.17668039654717 580.0000115018838 312.07706900799076V487.92293564533884C580.0000115018838 497.82332425678237 574.7179567241619 506.9726966852445 566.1436243620049 511.9235838103232L413.85638713987896 599.8465171289972C405.2820547777219 604.7960186153621 394.7179452222781 604.7960186153621 386.14361286012104 599.8451314902834L233.85637563799514 511.92219817160935C225.28204327583802 506.9726966852445 219.99998849811612 497.82332425678237 219.99998849811612 487.92293564533884V312.07706900799076C219.99998849811612 302.17668039654717 225.28204327583802 293.0273079680851 233.85637563799514 288.07642084300636L386.14361286012104 200.15348752433232Z " transform="rotate(4.5, 400, 400)" opacity="0.49"></path><path d="M387.6832114312187 222.3586640542893C395.3048401975806 217.9591071775206 404.6951598024194 217.9591071775206 412.3167885687813 222.35989573314617L547.6832216551154 300.5136142386342C555.3048504214773 304.91317111540286 560.0000102238968 313.0459466073692 560.0000102238968 321.8462920397635V478.15372905073946C560.0000102238968 486.9540744831338 555.3048504214773 495.0868499751002 547.6832216551154 499.4876385307257L412.3167885687813 577.6413570362137C404.6951598024194 582.0409139129824 395.3048401975806 582.0409139129824 387.6832114312187 577.6401253573569L252.31677834488454 499.4864068518689C244.69514957852272 495.0868499751002 239.99998977610323 486.9540744831338 239.99998977610323 478.15372905073946V321.8462920397635C239.99998977610323 313.0459466073692 244.69514957852272 304.91317111540286 252.31677834488454 300.51238255977734L387.6832114312187 222.3586640542893Z " transform="rotate(4, 400, 400)" opacity="0.56"></path><path d="M389.22281000231635 244.5637948078791C395.891735172883 240.7141825407065 404.108264827117 240.7141825407065 410.77718999768365 244.56487252687887L529.222818948226 312.9493762191809C535.8917441187926 316.7989884863535 540.0000089459097 323.915167041824 540.0000089459097 331.615469295169V468.3844766797731C540.0000089459097 476.08477893311806 535.8917441187926 483.2009574885886 529.222818948226 487.05164747476095L410.77718999768365 555.4361511670629C404.108264827117 559.2857634342356 395.891735172883 559.2857634342356 389.22281000231635 555.4350734480632L270.777181051774 487.0505697557612C264.10825588120736 483.2009574885886 259.99999105409034 476.08477893311806 259.99999105409034 468.3844766797731V331.615469295169C259.99999105409034 323.915167041824 264.10825588120736 316.7989884863535 270.777181051774 312.9482985001812L389.22281000231635 244.5637948078791Z " transform="rotate(3.5, 400, 400)" opacity="0.62"></path><path d="M390.762408573414 266.76898659662515C396.4786301481854 263.46931893904866 403.5213698518146 263.46931893904866 409.237591426586 266.7699103557678L510.7624162413366 325.3851992348839C516.478637816108 328.6848668924604 520.0000076679225 334.78444851143513 520.0000076679225 341.38470758573084V458.61528534396285C520.0000076679225 465.21554441825856 516.478637816108 471.3151260372333 510.7624162413366 474.61571745395247L409.237591426586 533.2310063330685C403.5213698518146 536.530673990645 396.4786301481854 536.530673990645 390.762408573414 533.2300825739259L289.2375837586634 474.6147936948098C283.521362183892 471.3151260372333 279.99999233207745 465.21554441825856 279.99999233207745 458.61528534396285V341.38470758573084C279.99999233207745 334.78444851143513 283.521362183892 328.6848668924604 289.2375837586634 325.3842754757412L390.762408573414 266.76898659662515Z " transform="rotate(3, 400, 400)" opacity="0.68"></path><path d="M392.30200714451166 288.97415549718767C397.0655251234879 286.22443244920726 402.9344748765121 286.22443244920726 407.69799285548834 288.9749252964732L492.30201353444716 337.8209993624032C497.0655315134233 340.57072241038367 500.0000063899355 345.6537070928626 500.0000063899355 351.153922988109V448.84607111996905C500.0000063899355 454.34628701521547 497.0655315134233 459.42927169769445 492.30201353444716 462.1797645449604L407.69799285548834 511.0258386108904C402.9344748765121 513.7755616588709 397.0655251234879 513.7755616588709 392.30200714451166 511.02506881160485L307.69798646555284 462.17899474567486C302.9344684865767 459.42927169769445 299.9999936100645 454.34628701521547 299.9999936100645 448.84607111996905V351.153922988109C299.9999936100645 345.6537070928626 302.9344684865767 340.57072241038367 307.69798646555284 337.82022956311766L392.30200714451166 288.97415549718767Z " transform="rotate(2.5, 400, 400)" opacity="0.75"></path><path d="M393.8416057156094 311.1793167683556C397.6524200987903 308.9795383299712 402.3475799012097 308.9795383299712 406.1583942843906 311.17993260778405L473.8416108275577 350.25679186052804C477.65242521073867 352.45657029891237 480.0000051119484 356.5229580448955 480.0000051119484 360.9231307610927V439.07684926658067C480.0000051119484 443.47702198277784 477.65242521073867 447.54340972876105 473.8416108275577 449.7438040065738L406.1583942843906 488.82066325931777C402.3475799012097 491.02044169770215 397.6524200987903 491.02044169770215 393.8416057156094 488.82004741988936L326.1583891724423 449.7431881671454C322.34757478926133 447.54340972876105 319.9999948880516 443.47702198277784 319.9999948880516 439.07684926658067V360.9231307610927C319.9999948880516 356.5229580448955 322.34757478926133 352.45657029891237 326.1583891724423 350.25617602109963L393.8416057156094 311.1793167683556Z " transform="rotate(2, 400, 400)" opacity="0.81"></path><path d="M395.38120428670703 333.3844932983126C398.2393150740927 331.73465946952433 401.7606849259073 331.73465946952433 404.618795713293 333.3849551778839L455.3812081206683 362.69259961744194C458.239318908054 364.3424334462302 460.0000038339613 367.39222425571757 460.0000038339613 370.6923537928654V429.3076426719814C460.0000038339613 432.6077722091293 458.239318908054 435.65756301861666 455.3812081206683 437.30785872697624L404.618795713293 466.61550316653427C401.7606849259073 468.2653369953225 398.2393150740927 468.2653369953225 395.38120428670703 466.61504128696293L344.6187918793317 437.3073968474049C341.760681091946 435.65756301861666 339.9999961660387 432.6077722091293 339.9999961660387 429.3076426719814V370.6923537928654C339.9999961660387 367.39222425571757 341.760681091946 364.3424334462302 344.6187918793317 362.6921377378706L395.38120428670703 333.3844932983126Z " transform="rotate(1.5, 400, 400)" opacity="0.87"></path><path d="M396.9208028578047 355.58965456948056C398.8262100493951 354.4897653502884 401.1737899506049 354.4897653502884 403.0791971421953 355.58996248919476L436.92080541377885 375.1283921155667C438.82621260536934 376.22828133475895 440.0000025559742 378.2614752077505 440.0000025559742 380.4615615658491V419.53842081859307C440.0000025559742 421.73850717669166 438.82621260536934 423.77170104968326 436.92080541377885 424.8718981885896L403.0791971421953 444.41032781496165C401.1737899506049 445.5102170341538 398.8262100493951 445.5102170341538 396.9208028578047 444.4100198952474L363.07919458622115 424.8715902688754C361.17378739463066 423.77170104968326 359.99999744402584 421.73850717669166 359.99999744402584 419.53842081859307V380.4615615658491C359.99999744402584 378.2614752077505 361.17378739463066 376.22828133475895 363.07919458622115 375.1280841958525L396.9208028578047 355.58965456948056Z " transform="rotate(1, 400, 400)" opacity="0.94"></path><path d="M398.46040142890234 377.7948310994375C399.4131050246976 377.2448864898414 400.5868949753024 377.2448864898414 401.53959857109766 377.7949850592946L418.46040270688945 387.56419987248063C419.4131063026847 388.1141444820767 420.0000012779871 389.13074141857254 420.0000012779871 390.2307845976218V409.7692142239938C420.0000012779871 410.8692574030431 419.4131063026847 411.88585433953887 418.46040270688945 412.4359529089921L401.53959857109766 422.2051677221781C400.5868949753024 422.75511233177417 399.4131050246976 422.75511233177417 398.46040142890234 422.20501376232096L381.53959729311055 412.43579894913495C380.58689369731536 411.88585433953887 379.9999987220129 410.8692574030431 379.9999987220129 409.7692142239938V390.2307845976218C379.9999987220129 389.13074141857254 380.58689369731536 388.1141444820767 381.53959729311055 387.56404591262356L398.46040142890234 377.7948310994375Z " transform="rotate(0.5, 400, 400)" opacity="1.00"></path></g></svg>