<svg xmlns="http://www.w3.org/2000/svg" version="1.1" xmlns:xlink="http://www.w3.org/1999/xlink" xmlns:svgjs="http://svgjs.dev/svgjs" viewBox="0 0 800 800"><g stroke-width="5" stroke-opacity='0.2' stroke="rgb(153, 153, 153)" fill="none"><rect width="726" height="726" x="37" y="37" transform="rotate(44, 400, 400)" opacity="0.05"></rect><rect width="693" height="693" x="53.5" y="53.5" transform="rotate(42, 400, 400)" opacity="0.10"></rect><rect width="660" height="660" x="70" y="70" transform="rotate(40, 400, 400)" opacity="0.14"></rect><rect width="627" height="627" x="86.5" y="86.5" transform="rotate(38, 400, 400)" opacity="0.19"></rect><rect width="594" height="594" x="103" y="103" transform="rotate(36, 400, 400)" opacity="0.23"></rect><rect width="561" height="561" x="119.5" y="119.5" transform="rotate(34, 400, 400)" opacity="0.28"></rect><rect width="528" height="528" x="136" y="136" transform="rotate(32, 400, 400)" opacity="0.32"></rect><rect width="495" height="495" x="152.5" y="152.5" transform="rotate(30, 400, 400)" opacity="0.37"></rect><rect width="462" height="462" x="169" y="169" transform="rotate(28, 400, 400)" opacity="0.41"></rect><rect width="429" height="429" x="185.5" y="185.5" transform="rotate(26, 400, 400)" opacity="0.46"></rect><rect width="396" height="396" x="202" y="202" transform="rotate(24, 400, 400)" opacity="0.50"></rect><rect width="363" height="363" x="218.5" y="218.5" transform="rotate(22, 400, 400)" opacity="0.55"></rect><rect width="330" height="330" x="235" y="235" transform="rotate(20, 400, 400)" opacity="0.59"></rect><rect width="297" height="297" x="251.5" y="251.5" transform="rotate(18, 400, 400)" opacity="0.64"></rect><rect width="264" height="264" x="268" y="268" transform="rotate(16, 400, 400)" opacity="0.68"></rect><rect width="231" height="231" x="284.5" y="284.5" transform="rotate(14, 400, 400)" opacity="0.73"></rect><rect width="198" height="198" x="301" y="301" transform="rotate(12, 400, 400)" opacity="0.77"></rect><rect width="165" height="165" x="317.5" y="317.5" transform="rotate(10, 400, 400)" opacity="0.82"></rect><rect width="132" height="132" x="334" y="334" transform="rotate(8, 400, 400)" opacity="0.86"></rect><rect width="99" height="99" x="350.5" y="350.5" transform="rotate(6, 400, 400)" opacity="0.91"></rect><rect width="66" height="66" x="367" y="367" transform="rotate(4, 400, 400)" opacity="0.95"></rect><rect width="33" height="33" x="383.5" y="383.5" transform="rotate(2, 400, 400)" opacity="1.00"></rect></g></svg>